<?xml version="1.0" encoding="utf-8"?>
<!-- Generator: Adobe Illustrator 27.3.0, SVG Export Plug-In . SVG Version: 6.00 Build 0)  -->
<svg version="1.0" id="Layer_1" xmlns="http://www.w3.org/2000/svg" xmlns:xlink="http://www.w3.org/1999/xlink" x="0px" y="0px"
	 viewBox="0 0 860 730" style="enable-background:new 0 0 860 730;" xml:space="preserve">
<style type="text/css">
	.st0{fill:#B1B1B1;}
</style>
<g id="Design">
	<g>
		<g>
			<g>
				<path class="st0" d="M394.9,14H4.9v350.9h0.6V14.7h391.2c0,0,2.1,0.1,4.2-0.4v-0.6C399.3,14,397.2,14,394.9,14z M396.7,715.3
					l-391.2,0V364.9H4.9v350.9h390c2,0,3.8,0.1,5.2,0.4v-0.6C398.2,715.4,396.7,715.3,396.7,715.3z"/>
			</g>
			<g>
				<g>
					<path class="st0" d="M418.6,5.8c-0.1-0.1-0.3-0.2-0.5-0.3c0.2-0.1,0.2-0.2,0.4-0.3c0.1-0.1,0.2-0.1,0.2-0.2c0-0.1,0-0.2,0-0.3
						c-0.1-0.2-0.2-0.3-0.4-0.4C418,4.1,417.6,4,417.2,4c0.1-0.2,0.1-0.4,0.2-0.8c0-0.2,0.1-0.5,0-0.7c0-0.1,0-0.2-0.1-0.3
						c-0.1-0.1-0.2-0.2-0.3-0.2c-0.4-0.1-0.9-0.1-1.3,0c-0.2,0-0.4,0.1-0.5,0.1c-0.1-0.3-0.1-0.7-0.3-0.9c-0.2-0.3-0.3-0.6-0.7-0.7
						c-0.1,0-0.3,0-0.3,0c-0.1,0-0.1,0.1-0.2,0.2c-0.1,0.1-0.2,0.3-0.2,0.4c0,0.1,0,0.1-0.1,0.2c-0.1-0.2-0.3-0.5-0.4-0.6
						c-0.2-0.3-0.4-0.5-0.7-0.6c-0.2-0.1-0.4,0-0.6,0.1c-0.2,0.1-0.4,0.2-0.4,0.5c-0.1,0.3-0.1,0.7,0,1c0,0.3,0.1,0.6,0,0.7
						c-0.1,0.4-0.6,0.8-1,1.3c-0.4,0.4-0.9,0.9-1.1,1.5c-0.2,0.7,0,1.4,0.4,2c0.3,0.6,0.7,1.1,1,1.5c-0.5,0.5-1,1-1.6,1.5l0-0.2
						c0-0.1-0.1-0.2-0.2-0.2c-0.1,0-0.3,0-0.3,0.2c0,0,0,0.1,0,0.1l0.1,0.5c-0.8,0.6-1.6,1-2.5,1.5c0,0,0,0-0.1,0
						c-0.5,0.3-1.1,0.5-1.6,0.7l-0.1-0.6c0.4-0.4,0.8-0.8,1-1.4c0.5-1.5-0.1-3.2-1.4-4l0,0c0,0,0,0,0,0c0,0-0.1,0-0.1,0
						c0,0,0,0-0.1,0c-0.1,0-0.2,0-0.3,0.1c-0.5,0.4-0.9,0.9-1.1,1.5c-0.5,1.5,0.1,3.1,1.4,3.9c0,0,0.1,0.1,0.1,0.1l0.1,0.6
						c-0.7,0.3-1.5,0.5-2.3,0.7c-0.1,0-0.1,0-0.1,0c-0.7,0.2-1.3,0.3-2.1,0.4c-0.2,0-0.3,0.2-0.2,0.3c0,0.2,0.2,0.3,0.3,0.2l0,0
						c0.7-0.1,1.4-0.2,2-0.4l1.1,0.8c0.1,0.1,0.3,0.1,0.4,0c0.1-0.1,0.1-0.3,0-0.4l-0.8-0.6c1.5-0.4,2.8-0.9,4-1.4l1.6,0.6
						c0.3,1.2,1.2,2.2,2.4,2.6c1.3,0.4,2.7,0.2,3.7-0.6c0,0,0.1-0.1,0.1-0.1c0,0,0-0.1,0-0.1c-0.3-1.2-1.2-2.3-2.5-2.8
						c-1.2-0.4-2.5-0.2-3.5,0.5l-1.1-0.4c1.6-0.9,3-1.9,4.1-3.2c0.4,0.3,0.8,0.6,1.4,0.8c0.7,0.3,1.4,0.4,2.2,0
						c0.5-0.2,0.8-0.7,1.2-1.1c0.4-0.5,0.8-0.9,1-1c0.3-0.1,0.7-0.1,1.1-0.2c0.2,0,0.4-0.1,0.6-0.2c0.2-0.1,0.4-0.3,0.5-0.6
						C419,6.4,418.9,6,418.6,5.8z M402.8,8.4c0.1-0.5,0.4-0.8,0.7-1.1c1.1,0.7,1.6,2,1.1,3.3c-0.2,0.5-0.4,0.8-0.7,1.1
						C402.9,11,402.4,9.6,402.8,8.4z M411.3,12.5c1,0.4,1.8,1.2,2.1,2.2c-0.8,0.6-1.9,0.8-3,0.4c-1.1-0.4-1.8-1.2-2.1-2.2
						C409.2,12.4,410.3,12.2,411.3,12.5z M414.1,1.3c0-0.1,0.1-0.2,0.1-0.2c0.1,0,0.2,0.1,0.3,0.4c0.1,0.3,0.2,0.7,0.3,1.1
						c0,0.2,0.2,0.3,0.3,0.2c0,0,0,0,0.1,0l0,0c0,0,0,0,0,0c0,0,0.1,0,0.2,0c0.1,0,0.3-0.1,0.5-0.1c0.4-0.1,0.8-0.1,1-0.1
						c0,0,0,0,0,0.1c0,0.1,0,0.3,0,0.5c-0.1,0.4-0.2,0.8-0.2,1c0,0.1,0,0.3,0.2,0.3l0,0c0.5,0.1,1,0.2,1.2,0.3c0.1,0,0.1,0,0.1,0
						c-0.3,0.2-0.6,0.4-0.6,0.5c-0.8-0.2-2-0.3-3.6-0.2c0.3-1.2,0.2-2.3-0.1-3.1C413.9,1.8,414,1.5,414.1,1.3z M418.4,6.5
						c0,0.1-0.1,0.2-0.2,0.2c-0.1,0-0.2,0.1-0.4,0.1c-0.4,0-0.8,0-1.2,0.3c-0.5,0.2-0.8,0.7-1.2,1.1c-0.4,0.5-0.8,0.9-1,1
						c-0.5,0.3-1.1,0.2-1.7,0c-0.6-0.2-1.1-0.6-1.4-0.8c0,0,0,0,0,0c-0.3-0.4-0.7-1-1.1-1.6c-0.3-0.6-0.5-1.2-0.4-1.6
						c0.1-0.4,0.6-0.8,1-1.3c0.4-0.4,0.9-0.9,1.1-1.5c0.1-0.3,0.1-0.7,0-1c0-0.3-0.1-0.6,0-0.7c0,0,0.1-0.1,0.1-0.1
						c0.1,0,0.2,0,0.2,0c0,0,0.2,0.1,0.4,0.4c0.2,0.2,0.4,0.6,0.6,1c0.3,0.8,0.5,2,0,3.4l0,0c0,0,0,0,0,0c0,0.1,0,0.3,0.2,0.4
						c0,0,0.1,0,0.1,0c1.7-0.1,3,0,3.9,0.2c0,0,0,0,0.1,0c0.4,0.1,0.7,0.2,0.8,0.4C418.4,6.4,418.4,6.4,418.4,6.5z"/>
				</g>
				<g>
					
						<rect x="411" y="6.7" transform="matrix(0.6572 -0.7538 0.7538 0.6572 136.1184 313.2821)" class="st0" width="2.9" height="0.7"/>
				</g>
				<g>
					
						<rect x="403.4" y="8" transform="matrix(0.9977 -6.706267e-02 6.706267e-02 0.9977 0.2747 27.0993)" class="st0" width="0.7" height="2.9"/>
				</g>
				<g>
					
						<rect x="410.5" y="12.4" transform="matrix(0.3559 -0.9345 0.9345 0.3559 251.7063 392.8323)" class="st0" width="0.7" height="2.9"/>
				</g>
				<g>
					<path class="st0" d="M415.7,3.9l0.2,0.1c0.1,0.1,0.2,0.1,0.3,0l0.1-0.1c0.1-0.1,0.1-0.2,0-0.3l-0.7-0.7c-0.1-0.1-0.2-0.1-0.3,0
						L415.1,3c-0.1,0.1-0.1,0.2,0,0.3l0.1,0l-0.9,1l0.5,0.5L415.7,3.9z"/>
				</g>
			</g>
			<g>
				<g>
					<path class="st0" d="M418.6,723.3c-0.1-0.3-0.3-0.4-0.5-0.6c-0.2-0.1-0.4-0.2-0.6-0.2c-0.4-0.1-0.8-0.1-1.1-0.2
						c-0.3-0.1-0.6-0.6-1-1c-0.4-0.5-0.7-0.9-1.2-1.2c-0.7-0.3-1.5-0.2-2.2,0c-0.6,0.2-1,0.5-1.4,0.8c-1.1-1.3-2.5-2.3-4.1-3.2
						l1.1-0.4c1,0.7,2.3,1,3.5,0.5c1.3-0.4,2.2-1.5,2.5-2.8c0-0.1,0-0.1,0-0.1c0-0.1,0-0.1-0.1-0.1c-1-0.8-2.4-1.1-3.7-0.6
						c-1.2,0.4-2.1,1.4-2.4,2.6l-1.6,0.6c-1.2-0.6-2.6-1.1-4-1.4l0.8-0.6c0.1-0.1,0.1-0.3,0-0.4s-0.3-0.1-0.4,0l-1.1,0.8
						c-0.7-0.2-1.3-0.3-2-0.4l-0.1,0c-0.2,0-0.3,0-0.3,0.2c0,0.2,0.1,0.3,0.2,0.3c0.7,0.1,1.4,0.2,2.1,0.4c0,0,0.1,0,0.1,0
						c0.8,0.2,1.6,0.4,2.3,0.7l-0.1,0.6c0,0-0.1,0.1-0.1,0.1c-1.3,0.8-1.9,2.4-1.4,3.9c0.2,0.6,0.6,1.1,1.1,1.5
						c0.1,0.1,0.2,0.1,0.3,0.1c0,0,0,0,0.1,0c0,0,0.1,0,0.1,0c0,0,0,0,0,0l0,0c1.3-0.8,1.9-2.4,1.4-4c-0.2-0.6-0.5-1-1-1.4l0.1-0.6
						c0.6,0.2,1.1,0.4,1.6,0.7c0,0,0,0,0.1,0c0.9,0.4,1.7,0.9,2.5,1.5l-0.1,0.5c0,0,0,0.1,0,0.1c0,0.1,0.2,0.2,0.3,0.2
						c0.1,0,0.2-0.1,0.2-0.2l0-0.2c0.6,0.5,1.1,1,1.6,1.5c-0.3,0.4-0.7,0.9-1,1.5c-0.4,0.7-0.6,1.4-0.4,2c0.2,0.6,0.7,1.1,1.1,1.5
						c0.4,0.4,0.9,0.8,1,1.3c0.1,0.2,0,0.4,0,0.7c0,0.3-0.1,0.6,0,1c0.1,0.2,0.2,0.4,0.4,0.5c0.2,0.1,0.4,0.1,0.6,0.1
						c0.2-0.1,0.4-0.3,0.7-0.6c0.1-0.2,0.3-0.4,0.4-0.6c0,0.1,0.1,0.1,0.1,0.2c0.1,0.2,0.2,0.3,0.2,0.4c0.1,0.1,0.1,0.1,0.2,0.2
						c0.1,0,0.2,0.1,0.3,0c0.3-0.1,0.5-0.4,0.7-0.7c0.1-0.3,0.2-0.6,0.3-0.9c0.1,0,0.3,0.1,0.5,0.1c0.4,0.1,0.9,0.2,1.3,0
						c0.1,0,0.2-0.1,0.3-0.2c0.1-0.1,0.1-0.2,0.1-0.3c0-0.2,0-0.4,0-0.7c-0.1-0.3-0.1-0.6-0.2-0.8c0.4-0.1,0.8-0.2,1.1-0.3
						c0.2-0.1,0.3-0.2,0.4-0.4c0-0.1,0.1-0.2,0-0.3c0-0.1-0.1-0.2-0.2-0.2c-0.2-0.1-0.2-0.2-0.4-0.3c0.2-0.1,0.4-0.2,0.5-0.3
						C418.6,724,418.7,723.6,418.6,723.3z M403.7,718.3c0.3,0.3,0.6,0.7,0.7,1.1c0.4,1.3-0.1,2.6-1.1,3.3c-0.3-0.3-0.6-0.7-0.7-1.1
						C402.1,720.4,402.6,719,403.7,718.3z M408.1,717.1c0.3-1,1-1.8,2.1-2.2c1-0.4,2.1-0.2,3,0.4c-0.3,1-1,1.8-2.1,2.2
						C410,717.8,408.9,717.6,408.1,717.1z M413.5,728.1c0.3-0.8,0.4-1.9,0.1-3.1c1.5,0.1,2.7,0,3.6-0.2c0.1,0.1,0.4,0.3,0.6,0.5
						c0,0,0,0-0.1,0c-0.2,0.1-0.7,0.3-1.2,0.3l0,0c-0.1,0-0.2,0.2-0.2,0.3c0,0.1,0.2,0.6,0.2,1c0,0.2,0,0.4,0,0.5c0,0.1,0,0.1,0,0.1
						c-0.1,0-0.6,0-1-0.1c-0.2,0-0.4-0.1-0.5-0.1c-0.1,0-0.1,0-0.2,0c0,0,0,0,0,0l0,0c0,0,0,0-0.1,0c-0.2,0-0.3,0.1-0.3,0.2
						c-0.1,0.4-0.2,0.8-0.3,1.1c-0.1,0.2-0.2,0.3-0.3,0.4c0-0.1-0.1-0.1-0.1-0.2C413.7,728.5,413.6,728.2,413.5,728.1z M418,723.8
						c-0.1,0.1-0.4,0.3-0.8,0.4c0,0,0,0-0.1,0c-0.8,0.2-2.1,0.3-3.9,0.2c-0.1,0-0.1,0-0.1,0c-0.1,0-0.2,0.2-0.2,0.4c0,0,0,0,0,0l0,0
						c0.5,1.4,0.3,2.5,0,3.4c-0.2,0.4-0.4,0.8-0.6,1c-0.2,0.2-0.4,0.4-0.4,0.4c0,0-0.1,0-0.2,0c-0.1,0-0.1-0.1-0.1-0.1
						c-0.1-0.2,0-0.4,0-0.7c0-0.3,0.1-0.7,0-1c-0.2-0.6-0.7-1.1-1.1-1.5c-0.4-0.4-0.9-0.8-1-1.3c-0.1-0.4,0-1,0.4-1.6
						c0.3-0.6,0.8-1.2,1.1-1.6c0,0,0,0,0,0c0.3-0.2,0.8-0.6,1.4-0.8c0.6-0.2,1.2-0.3,1.7,0c0.3,0.1,0.6,0.5,1,1
						c0.4,0.5,0.7,0.9,1.2,1.1c0.4,0.2,0.9,0.2,1.2,0.3c0.2,0,0.3,0.1,0.4,0.1c0.1,0,0.2,0.1,0.2,0.2
						C418.1,723.6,418.1,723.6,418,723.8z"/>
				</g>
				<g>
					
						<rect x="411.8" y="721.5" transform="matrix(0.7537 -0.6572 0.6572 0.7537 -373.6426 448.9014)" class="st0" width="0.7" height="2.9"/>
				</g>
				<g>
					
						<rect x="402" y="720.2" transform="matrix(6.706353e-02 -0.9977 0.9977 6.706353e-02 -342.5125 1074.7754)" class="st0" width="2.9" height="0.7"/>
				</g>
				<g>
					
						<rect x="409.1" y="715.8" transform="matrix(0.9345 -0.3559 0.3559 0.9345 -228.0048 192.9914)" class="st0" width="2.9" height="0.7"/>
				</g>
				<g>
					<path class="st0" d="M415.3,726.1l0.2-0.1c0.1-0.1,0.2-0.1,0.3,0l0.1,0.1c0.1,0.1,0.1,0.2,0,0.3l-0.7,0.7
						c-0.1,0.1-0.2,0.1-0.3,0l-0.1-0.1c-0.1-0.1-0.1-0.2,0-0.3l0.1,0l-0.9-1l0.5-0.5L415.3,726.1z"/>
				</g>
			</g>
			<g>
				<path class="st0" d="M392.1,719.5H20.5L1.2,700.3V29.6l19.2-19.2h371.6c0.3,0,0.6-0.3,0.6-0.6c0-0.3-0.3-0.6-0.6-0.6H19.2
					L0.1,9.2L0,28.4v692.4h392.1c0.3,0,0.6-0.3,0.6-0.6S392.4,719.5,392.1,719.5z M398.4,9.1c-0.3,0-0.6,0.3-0.6,0.6
					c0,0.3,0.3,0.6,0.6,0.6c0.3,0,0.6-0.3,0.6-0.6C399,9.4,398.7,9.1,398.4,9.1z M395.2,9.1c-0.3,0-0.6,0.3-0.6,0.6
					c0,0.3,0.3,0.6,0.6,0.6c0.3,0,0.6-0.3,0.6-0.6C395.8,9.4,395.6,9.1,395.2,9.1z M398.4,719.5c-0.3,0-0.6,0.3-0.6,0.6
					s0.3,0.6,0.6,0.6c0.3,0,0.6-0.3,0.6-0.6S398.7,719.5,398.4,719.5z M395.2,719.5c-0.3,0-0.6,0.3-0.6,0.6s0.3,0.6,0.6,0.6
					c0.3,0,0.6-0.3,0.6-0.6S395.6,719.5,395.2,719.5z"/>
			</g>
		</g>
	</g>
	<g>
		<g>
			<g>
				<path class="st0" d="M459.1,13.7v0.6c2.1,0.5,4.2,0.4,4.2,0.4h391.2v350.3h0.6V14h-390C462.8,14,460.7,14,459.1,13.7z
					 M459.8,715.7v0.6c1.5-0.3,3.3-0.4,5.2-0.4h390V364.9h-0.6v350.3l-391.2,0C463.3,715.3,461.8,715.4,459.8,715.7z"/>
			</g>
			<g>
				<g>
					<path class="st0" d="M441.1,6.7c0.1,0.3,0.3,0.4,0.5,0.6c0.2,0.1,0.4,0.2,0.6,0.2c0.4,0.1,0.8,0.1,1.1,0.2c0.3,0.1,0.6,0.6,1,1
						c0.4,0.5,0.7,0.9,1.2,1.1c0.7,0.3,1.5,0.2,2.2,0c0.6-0.2,1-0.5,1.4-0.8c1.1,1.3,2.5,2.3,4.1,3.2l-1.1,0.4c-1-0.7-2.3-1-3.5-0.5
						c-1.3,0.4-2.2,1.5-2.5,2.8c0,0.1,0,0.1,0,0.1c0,0.1,0,0.1,0.1,0.1c1,0.8,2.4,1.1,3.7,0.6c1.2-0.4,2.1-1.4,2.4-2.6l1.6-0.6
						c1.2,0.6,2.6,1.1,4,1.4l-0.8,0.6c-0.1,0.1-0.1,0.3,0,0.4c0.1,0.1,0.3,0.1,0.4,0l1.1-0.8c0.7,0.2,1.3,0.3,2,0.4l0,0
						c0.2,0,0.3-0.1,0.3-0.2c0-0.2-0.1-0.3-0.2-0.3c-0.7-0.1-1.4-0.2-2.1-0.4c0,0-0.1,0-0.1,0c-0.8-0.2-1.6-0.4-2.3-0.7l0.1-0.6
						c0,0,0.1-0.1,0.1-0.1c1.3-0.8,1.9-2.4,1.4-3.9c-0.2-0.6-0.6-1.1-1.1-1.5c-0.1-0.1-0.2-0.1-0.3-0.1c0,0,0,0-0.1,0
						c0,0-0.1,0-0.1,0c0,0,0,0,0,0l0,0c-1.3,0.8-1.9,2.4-1.4,4c0.2,0.6,0.5,1,1,1.4l-0.1,0.6c-0.6-0.2-1.1-0.4-1.6-0.7
						c0,0,0,0-0.1,0c-0.9-0.4-1.7-0.9-2.5-1.5l0.1-0.5c0,0,0-0.1,0-0.1c0-0.1-0.2-0.2-0.3-0.2c-0.1,0-0.2,0.1-0.2,0.2l0,0.2
						c-0.6-0.5-1.1-1-1.6-1.5c0.3-0.4,0.7-0.9,1-1.5c0.4-0.7,0.6-1.4,0.4-2c-0.2-0.6-0.7-1.1-1.1-1.5c-0.4-0.4-0.9-0.8-1-1.3
						c-0.1-0.2,0-0.4,0-0.7c0-0.3,0.1-0.6,0-1c-0.1-0.2-0.2-0.4-0.4-0.5C448,0,447.8,0,447.6,0c-0.2,0.1-0.4,0.3-0.7,0.6
						c-0.1,0.2-0.3,0.4-0.4,0.6c0-0.1-0.1-0.1-0.1-0.2c-0.1-0.2-0.2-0.3-0.2-0.4c-0.1-0.1-0.1-0.1-0.2-0.2c-0.1,0-0.2-0.1-0.3,0
						c-0.3,0.1-0.5,0.4-0.7,0.7c-0.1,0.3-0.2,0.6-0.3,0.9c-0.1,0-0.3-0.1-0.5-0.1c-0.4-0.1-0.9-0.2-1.3,0c-0.1,0-0.2,0.1-0.3,0.2
						c-0.1,0.1-0.1,0.2-0.1,0.3c0,0.2,0,0.4,0,0.7c0.1,0.3,0.1,0.6,0.2,0.8c-0.4,0.1-0.8,0.2-1.1,0.3c-0.2,0.1-0.3,0.2-0.4,0.4
						c0,0.1-0.1,0.2,0,0.3c0,0.1,0.1,0.2,0.2,0.2c0.2,0.1,0.2,0.2,0.4,0.3c-0.2,0.1-0.4,0.2-0.5,0.3C441.1,6,441,6.4,441.1,6.7z
						 M456,11.7c-0.3-0.3-0.6-0.7-0.7-1.1c-0.4-1.3,0.1-2.6,1.1-3.3c0.3,0.3,0.6,0.7,0.7,1.1C457.6,9.6,457.1,11,456,11.7z
						 M451.6,12.9c-0.3,1-1,1.8-2.1,2.2c-1,0.4-2.1,0.2-3-0.4c0.3-1,1-1.8,2.1-2.2C449.7,12.2,450.8,12.4,451.6,12.9z M446.2,1.9
						c-0.3,0.8-0.4,1.9-0.1,3.1c-1.5-0.1-2.7,0-3.6,0.2c-0.1-0.1-0.4-0.3-0.6-0.5c0,0,0,0,0.1,0c0.2-0.1,0.7-0.3,1.2-0.3l0,0
						c0.1,0,0.2-0.2,0.2-0.3c0-0.1-0.2-0.6-0.2-1c0-0.2,0-0.4,0-0.5c0-0.1,0-0.1,0-0.1c0.1,0,0.6,0,1,0.1c0.2,0,0.4,0.1,0.5,0.1
						c0.1,0,0.1,0,0.2,0c0,0,0,0,0,0l0,0c0,0,0,0,0.1,0c0.2,0,0.3-0.1,0.3-0.2c0.1-0.4,0.2-0.8,0.3-1.1c0.1-0.2,0.2-0.3,0.3-0.4
						c0,0.1,0.1,0.1,0.1,0.2C446,1.5,446.1,1.8,446.2,1.9z M441.7,6.2c0.1-0.1,0.4-0.3,0.8-0.4c0,0,0,0,0.1,0
						c0.8-0.2,2.1-0.3,3.9-0.2c0.1,0,0.1,0,0.1,0c0.1,0,0.2-0.2,0.2-0.4c0,0,0,0,0,0l0,0c-0.5-1.4-0.3-2.5,0-3.4
						c0.2-0.4,0.4-0.8,0.6-1c0.2-0.2,0.4-0.4,0.4-0.4c0,0,0.1,0,0.2,0c0.1,0,0.1,0.1,0.1,0.1c0.1,0.2,0,0.4,0,0.7c0,0.3-0.1,0.7,0,1
						c0.2,0.6,0.7,1.1,1.1,1.5c0.4,0.4,0.9,0.8,1,1.3c0.1,0.4,0,1-0.4,1.6c-0.3,0.6-0.8,1.2-1.1,1.6c0,0,0,0,0,0
						c-0.3,0.2-0.8,0.6-1.4,0.8c-0.6,0.2-1.2,0.3-1.7,0c-0.3-0.1-0.6-0.5-1-1c-0.4-0.5-0.7-0.9-1.2-1.1c-0.4-0.2-0.9-0.2-1.2-0.3
						c-0.2,0-0.3-0.1-0.4-0.1c-0.1,0-0.2-0.1-0.2-0.2C441.6,6.4,441.6,6.4,441.7,6.2z"/>
				</g>
				<g>
					
						<rect x="447.2" y="5.6" transform="matrix(0.7538 -0.6572 0.6572 0.7538 105.6031 295.843)" class="st0" width="0.7" height="2.9"/>
				</g>
				<g>
					
						<rect x="454.8" y="9.1" transform="matrix(6.706267e-02 -0.9977 0.9977 6.706267e-02 416.1945 464.0251)" class="st0" width="2.9" height="0.7"/>
				</g>
				<g>
					
						<rect x="447.7" y="13.5" transform="matrix(0.9345 -0.3559 0.3559 0.9345 24.4906 160.7601)" class="st0" width="2.9" height="0.7"/>
				</g>
				<g>
					<path class="st0" d="M444.3,3.9L444.2,4c-0.1,0.1-0.2,0.1-0.3,0l-0.1-0.1c-0.1-0.1-0.1-0.2,0-0.3l0.7-0.7
						c0.1-0.1,0.2-0.1,0.3,0l0.1,0.1c0.1,0.1,0.1,0.2,0,0.3l-0.1,0l0.9,1l-0.5,0.5L444.3,3.9z"/>
				</g>
			</g>
			<g>
				<g>
					<path class="st0" d="M441.7,724.2c0.1,0.1,0.3,0.2,0.5,0.3c-0.2,0.1-0.2,0.2-0.4,0.3c-0.1,0.1-0.2,0.1-0.2,0.2
						c0,0.1,0,0.2,0,0.3c0.1,0.2,0.2,0.3,0.4,0.4c0.3,0.1,0.7,0.2,1.1,0.3c-0.1,0.2-0.1,0.4-0.2,0.8c0,0.2-0.1,0.5,0,0.7
						c0,0.1,0,0.2,0.1,0.3c0.1,0.1,0.2,0.2,0.3,0.2c0.4,0.1,0.9,0.1,1.3,0c0.2,0,0.4-0.1,0.5-0.1c0.1,0.3,0.1,0.7,0.3,0.9
						c0.2,0.3,0.3,0.6,0.7,0.7c0.1,0,0.3,0,0.3,0c0.1,0,0.1-0.1,0.2-0.2c0.1-0.1,0.2-0.3,0.2-0.4c0-0.1,0-0.1,0.1-0.2
						c0.1,0.2,0.3,0.5,0.4,0.6c0.2,0.3,0.4,0.5,0.7,0.6c0.2,0.1,0.4,0,0.6-0.1c0.2-0.1,0.4-0.2,0.4-0.5c0.1-0.3,0.1-0.7,0-1
						c0-0.3-0.1-0.6,0-0.7c0.1-0.4,0.6-0.8,1-1.3c0.4-0.4,0.9-0.9,1.1-1.5c0.2-0.7,0-1.4-0.4-2c-0.3-0.6-0.7-1.1-1-1.5
						c0.5-0.5,1-1,1.6-1.5l0,0.2c0,0.1,0.1,0.2,0.2,0.2c0.1,0,0.3,0,0.3-0.2c0,0,0-0.1,0-0.1l-0.1-0.5c0.8-0.6,1.6-1,2.5-1.5
						c0,0,0,0,0.1,0c0.5-0.3,1.1-0.5,1.6-0.7l0.1,0.6c-0.4,0.4-0.8,0.8-1,1.4c-0.5,1.5,0.1,3.2,1.4,4l0,0c0,0,0,0,0,0
						c0,0,0.1,0,0.1,0c0,0,0,0,0.1,0c0.1,0,0.2,0,0.3-0.1c0.5-0.4,0.9-0.9,1.1-1.5c0.5-1.5-0.1-3.1-1.4-3.9c0,0-0.1-0.1-0.1-0.1
						l-0.1-0.6c0.7-0.3,1.5-0.5,2.3-0.7c0.1,0,0.1,0,0.1,0c0.7-0.2,1.3-0.3,2.1-0.4c0.2,0,0.3-0.2,0.2-0.3c0-0.2-0.2-0.2-0.3-0.2
						l-0.1,0c-0.7,0.1-1.4,0.2-2,0.4l-1.1-0.8c-0.1-0.1-0.3-0.1-0.4,0s-0.1,0.3,0,0.4l0.8,0.6c-1.5,0.4-2.8,0.9-4,1.4l-1.6-0.6
						c-0.3-1.2-1.2-2.2-2.4-2.6c-1.3-0.4-2.7-0.2-3.7,0.6c0,0-0.1,0.1-0.1,0.1c0,0,0,0.1,0,0.1c0.3,1.2,1.2,2.3,2.5,2.8
						c1.2,0.4,2.5,0.2,3.5-0.5l1.1,0.4c-1.6,0.9-3,1.9-4.1,3.2c-0.4-0.3-0.8-0.6-1.4-0.8c-0.7-0.3-1.4-0.4-2.2,0
						c-0.5,0.2-0.8,0.7-1.2,1.2c-0.4,0.5-0.8,0.9-1,1c-0.3,0.1-0.7,0.1-1.1,0.2c-0.2,0-0.4,0.1-0.6,0.2c-0.2,0.1-0.4,0.3-0.5,0.6
						C441.3,723.6,441.4,724,441.7,724.2z M457.5,721.6c-0.1,0.5-0.4,0.8-0.7,1.1c-1.1-0.7-1.6-2-1.1-3.3c0.2-0.5,0.4-0.8,0.7-1.1
						C457.4,719,457.9,720.4,457.5,721.6z M449,717.5c-1-0.4-1.8-1.2-2.1-2.2c0.8-0.6,1.9-0.8,3-0.4c1.1,0.4,1.8,1.2,2.1,2.2
						C451.1,717.6,450,717.8,449,717.5z M446.2,728.7c0,0.1-0.1,0.2-0.1,0.2c-0.1,0-0.2-0.1-0.3-0.4c-0.1-0.3-0.2-0.7-0.3-1.1
						c0-0.2-0.2-0.3-0.3-0.2c0,0,0,0-0.1,0l0,0c0,0,0,0,0,0c0,0-0.1,0-0.2,0c-0.1,0-0.3,0.1-0.5,0.1c-0.4,0.1-0.8,0.1-1,0.1
						c0,0,0,0,0-0.1c0-0.1,0-0.3,0-0.5c0.1-0.4,0.2-0.8,0.2-1c0-0.1,0-0.3-0.2-0.3l0,0c-0.5-0.1-1-0.2-1.2-0.3c-0.1,0-0.1,0-0.1,0
						c0.3-0.2,0.6-0.4,0.6-0.5c0.8,0.2,2,0.3,3.6,0.2c-0.3,1.2-0.2,2.3,0.1,3.1C446.4,728.2,446.3,728.5,446.2,728.7z M441.9,723.5
						c0-0.1,0.1-0.2,0.2-0.2c0.1,0,0.2-0.1,0.4-0.1c0.4,0,0.8,0,1.2-0.3c0.5-0.2,0.8-0.7,1.2-1.1c0.4-0.5,0.8-0.9,1-1
						c0.5-0.3,1.1-0.2,1.7,0c0.6,0.2,1.1,0.6,1.4,0.8c0,0,0,0,0,0c0.3,0.4,0.7,1,1.1,1.6c0.3,0.6,0.5,1.2,0.4,1.6
						c-0.1,0.4-0.6,0.8-1,1.3c-0.4,0.4-0.9,0.9-1.1,1.5c-0.1,0.3-0.1,0.7,0,1c0,0.3,0.1,0.6,0,0.7c0,0-0.1,0.1-0.1,0.1
						c-0.1,0-0.2,0-0.2,0c0,0-0.2-0.1-0.4-0.4c-0.2-0.2-0.4-0.6-0.6-1c-0.3-0.8-0.5-2,0-3.4l0,0c0,0,0,0,0,0c0-0.1,0-0.3-0.2-0.4
						c0,0-0.1,0-0.1,0c-1.7,0.1-3,0-3.9-0.2c0,0,0,0-0.1,0c-0.4-0.1-0.7-0.2-0.8-0.4C441.9,723.6,441.9,723.6,441.9,723.5z"/>
				</g>
				<g>
					
						<rect x="446.4" y="722.6" transform="matrix(0.6572 -0.7537 0.7537 0.6572 -391.4027 585.4195)" class="st0" width="2.9" height="0.7"/>
				</g>
				<g>
					
						<rect x="456.2" y="719.1" transform="matrix(0.9977 -6.706353e-02 6.706353e-02 0.9977 -47.2942 32.239)" class="st0" width="0.7" height="2.9"/>
				</g>
				<g>
					
						<rect x="449.1" y="714.7" transform="matrix(0.3559 -0.9345 0.9345 0.3559 -379.7793 881.3486)" class="st0" width="0.7" height="2.9"/>
				</g>
				<g>
					<path class="st0" d="M444.7,726.1l-0.2-0.1c-0.1-0.1-0.2-0.1-0.3,0l-0.1,0.1c-0.1,0.1-0.1,0.2,0,0.3l0.7,0.7
						c0.1,0.1,0.2,0.1,0.3,0l0.1-0.1c0.1-0.1,0.1-0.2,0-0.3l-0.1,0l0.9-1l-0.5-0.5L444.7,726.1z"/>
				</g>
			</g>
			<g>
				<path class="st0" d="M467.3,720.1c0,0.3,0.3,0.6,0.6,0.6H860V28.4l-0.1-19.1l-19.1-0.1H467.9c-0.3,0-0.6,0.3-0.6,0.6
					c0,0.3,0.3,0.6,0.6,0.6l371.6,0l19.2,19.2v670.7l-19.2,19.2H467.9C467.6,719.5,467.3,719.8,467.3,720.1z M461,9.8
					c0,0.3,0.3,0.6,0.6,0.6c0.3,0,0.6-0.3,0.6-0.6c0-0.3-0.3-0.6-0.6-0.6C461.3,9.1,461,9.4,461,9.8z M464.2,9.8
					c0,0.3,0.3,0.6,0.6,0.6c0.3,0,0.6-0.3,0.6-0.6c0-0.3-0.3-0.6-0.6-0.6C464.4,9.1,464.2,9.4,464.2,9.8z M461,720.1
					c0,0.3,0.3,0.6,0.6,0.6c0.3,0,0.6-0.3,0.6-0.6s-0.3-0.6-0.6-0.6C461.3,719.5,461,719.8,461,720.1z M464.2,720.1
					c0,0.3,0.3,0.6,0.6,0.6c0.3,0,0.6-0.3,0.6-0.6s-0.3-0.6-0.6-0.6C464.4,719.5,464.2,719.8,464.2,720.1z"/>
			</g>
		</g>
	</g>
</g>
</svg>
