<svg xmlns="http://www.w3.org/2000/svg" width="17" height="16" viewBox="0 0 17 16">
  <defs>
    <style>
      .cls-1 {
        fill: #fff;
        fill-rule: evenodd;
      }
    </style>
  </defs>
  <path id="home.svg" class="cls-1" d="M404.649,421.581h-0.967v7.964a0.463,0.463,0,0,1-.468.456h-3.851a0.242,0.242,0,0,1-.244-0.239v-4.443a0.242,0.242,0,0,0-.244-0.239h-4.749a0.242,0.242,0,0,0-.246.239v4.443a0.242,0.242,0,0,1-.244.239h-3.851a0.464,0.464,0,0,1-.468-0.456v-7.964H388.35a0.337,0.337,0,0,1-.23-0.594l8.15-6.9a0.357,0.357,0,0,1,.46,0l8.149,6.9A0.337,0.337,0,0,1,404.649,421.581Z" transform="translate(-388 -414)"/>
</svg>
