<svg id="그룹_1988" data-name="그룹 1988" xmlns="http://www.w3.org/2000/svg" xmlns:xlink="http://www.w3.org/1999/xlink" width="92.058" height="20" viewBox="0 0 92.058 20">
  <defs>
    <clipPath id="clip-path">
      <rect id="사각형_1" data-name="사각형 1" width="92.058" height="20" fill="#262626"/>
    </clipPath>
  </defs>
  <g id="그룹_1987" data-name="그룹 1987" clip-path="url(#clip-path)">
    <path id="패스_160" data-name="패스 160" d="M24.5,4.668h13.05a1.854,1.854,0,0,0-.427-.788,2.93,2.93,0,0,0-1.2-.726,5.945,5.945,0,0,0-1.584-.275c-.305-.015-.52-.014-.52-.014h-8.75c-4.76,0-6.739,2.242-6.739,2.242a12.139,12.139,0,0,0-3.194,7.658c-.01.275-.012.656-.007.976a8.846,8.846,0,0,1-.779-2.286,20.977,20.977,0,0,1-.3-6.086c.056-.573.136-1.143.239-1.709a13.494,13.494,0,0,1,.5-2A5.767,5.767,0,0,1,15.14.824a1.032,1.032,0,0,0,.124-.542c-.035-.247-.334-.27-.559-.281-.093-.005-.3.01-.388.018a3.828,3.828,0,0,0-.683.119,3.8,3.8,0,0,0-.9.394,5.362,5.362,0,0,0-1.145.933A14.176,14.176,0,0,0,8.709,6.447c-.69,1.869-1.375,3.841-2.088,5.7a5.909,5.909,0,0,1-1.7,2.576,2.588,2.588,0,0,1-2.407.5A2.243,2.243,0,0,1,1.247,13.5,5.429,5.429,0,0,1,2.336,9a5.727,5.727,0,0,1,1.828-1.47,5.467,5.467,0,0,1,3.309-.617c-.388-1.455-2.3-1.5-3.695-1.033a5.093,5.093,0,0,0-1.3.769A6.921,6.921,0,0,0,1.4,7.829a6.812,6.812,0,0,0-1.22,5.638,3.25,3.25,0,0,0,3.6,2.761,4.669,4.669,0,0,0,3.2-1.808,20.642,20.642,0,0,0,3-5.051c.794-1.756,1.323-3.058,2.109-4.819a16.417,16.417,0,0,0,.975,7.781,6.414,6.414,0,0,0,1.693,2.488,2.516,2.516,0,0,0,1.041.55c.149,0,.207-.6.249-1.021a13.781,13.781,0,0,1,1.64-6.12A7.574,7.574,0,0,1,24.5,4.668" transform="translate(0 0)" fill="#262626"/>
    <path id="패스_161" data-name="패스 161" d="M247.924,31.484a4.573,4.573,0,0,0,.463-1.616,1.383,1.383,0,0,0-1.122-1.412,2.684,2.684,0,0,0-2.328.594c-.429.388-.789.783-1.2,1.227a1.482,1.482,0,0,0-1.251-1.907.38.38,0,0,0-.512.3c-.493,1.47-1.02,2.933-1.517,4.4a9.516,9.516,0,0,0-.478,1.813,1.723,1.723,0,0,0,1.689,2.353s1.428-4.127,1.681-4.865a4.359,4.359,0,0,1,1.233-2.059,1.552,1.552,0,0,1,1.14-.564c.363.009.492.237.619.567a1.67,1.67,0,0,0,.681.928,1.853,1.853,0,0,0,.9.235" transform="translate(-185.86 -21.965)" fill="#262626"/>
    <path id="패스_162" data-name="패스 162" d="M278.617,35.455c-.112.117-.229.231-.354.34a2.068,2.068,0,0,1-.591.364c-.39.15-.633-.077-.644-.452a2.171,2.171,0,0,1,.148-.742c.7-2.043,1.4-4.082,2.107-6.122.055-.16.1-.322.162-.51h-.923a2.178,2.178,0,0,0-2.293,1.633c-.361,1.048-.716,2.1-1.077,3.146l-.313,1.081a6.028,6.028,0,0,0-.191,1.128,1.8,1.8,0,0,0,2.534,1.746,2.259,2.259,0,0,0,1.378-1.254.832.832,0,0,0,.056-.357" transform="translate(-212.755 -21.948)" fill="#262626"/>
    <path id="패스_163" data-name="패스 163" d="M87.848,27.472a5.762,5.762,0,0,0-6.462,6.1,3.014,3.014,0,0,0,1.951,2.688,5.353,5.353,0,0,0,3.808.017c.021-.011.046-.023.075-.035a3.126,3.126,0,0,0,.944-.573,2.1,2.1,0,0,0,.523-.737.89.89,0,0,0,.058-.265,5.1,5.1,0,0,1-1.766.977,2.222,2.222,0,0,1-2.1-.3,3.165,3.165,0,0,1-1.024-2.125c.561-.1,1.036-.16,1.5-.274a5.933,5.933,0,0,0,3.519-2.2,3.49,3.49,0,0,0,.545-1.085,1.664,1.664,0,0,0-1.574-2.187m-.854,3.022a4.395,4.395,0,0,1-3.079,2.094,6.061,6.061,0,0,1,1.494-3.832,1.885,1.885,0,0,1,1.352-.653.694.694,0,0,1,.8.762,2.847,2.847,0,0,1-.563,1.629" transform="translate(-63.031 -21.241)" fill="#262626"/>
    <path id="패스_164" data-name="패스 164" d="M129.686,28.091a2.075,2.075,0,0,0-1.928,1.485c-.158.452-.293.912-.46,1.36-.514,1.376-1.017,2.756-1.574,4.116a2.629,2.629,0,0,1-.571.875.673.673,0,0,1-.669.23c-.381-.158-.309-.723-.275-1.043a9.37,9.37,0,0,1,.193-1.042,29.566,29.566,0,0,1,2.07-5.6c.055-.119.106-.238.2-.466a6.663,6.663,0,0,0-1.7.162,2.679,2.679,0,0,0-1.6,1.722c-.468,1.143-.851,2.319-1.279,3.479-.25.677-.485,1.363-.787,2.02a2.012,2.012,0,0,1-.655.795c-.356.238-.636.052-.669-.331a4.878,4.878,0,0,1,.114-1.39,27.937,27.937,0,0,1,2.127-5.953c.061-.129.113-.261.17-.4a2.85,2.85,0,0,0-2.891,1.341,10.637,10.637,0,0,0-1.4,3.264c-.446,1.551-.513,4.005,1.606,4.225a2.286,2.286,0,0,0,2.239-1.154c.067-.1.137-.191.229-.322.307,1.065.914,1.491,1.708,1.491a4.192,4.192,0,0,0,2.085-.53,7.238,7.238,0,0,0,2.715-2.819,35.453,35.453,0,0,0,2.177-5.521s-.805-.025-1.187,0" transform="translate(-91.301 -21.691)" fill="#262626"/>
    <path id="패스_165" data-name="패스 165" d="M302.383,35.37c-.028.027-.052.055-.08.081a4.433,4.433,0,0,1-2.248,1.249c.036-.142.058-.242.092-.337.73-2.13,1.454-4.263,2.2-6.385a.591.591,0,0,0-.146-.683,2.765,2.765,0,0,0-1.47-.835,5.941,5.941,0,0,0-3.314.243,6.273,6.273,0,0,0-4.017,4.5,4.075,4.075,0,0,0,.214,2.687,3.2,3.2,0,0,0,.859,1.056,3.956,3.956,0,0,0-1.89,1.622,2.133,2.133,0,0,0,1.014,3.149,3.236,3.236,0,0,0,.63.17c.094.017.187.03.282.04a4.533,4.533,0,0,0,2.061-.3,4.191,4.191,0,0,0,1.582-1.058,5.688,5.688,0,0,0,1.053-1.609c.194-.424.326-.875.506-1.306a.438.438,0,0,1,.239-.254,5.642,5.642,0,0,0,1.372-.491,2.652,2.652,0,0,0,.5-.356,2.12,2.12,0,0,0,.524-.739.822.822,0,0,0,.056-.355Zm-6.493,5.264a1.729,1.729,0,0,1-.9.622.6.6,0,0,1-.835-.558,3.157,3.157,0,0,1,.552-2.018,3.5,3.5,0,0,1,2.252-1.8,3.3,3.3,0,0,1,.7-.07,11.776,11.776,0,0,1-1.764,3.826m4.1-11.173c-.561,1.545-1.1,3.1-1.73,4.614a5.872,5.872,0,0,1-.794,1.522c-.259.334-.864.793-1.34.579-.419-.188-.4-.787-.39-1.24A9.45,9.45,0,0,1,298,29.692a1.906,1.906,0,0,1,1.284-.709.745.745,0,0,1,.636.178.314.314,0,0,1,.072.3" transform="translate(-226.401 -21.945)" fill="#262626"/>
    <path id="패스_166" data-name="패스 166" d="M344.2,28.333a2.18,2.18,0,0,0-2.293,1.633c-.361,1.048-.713,2.1-1.075,3.146l-.314,1.081a6.1,6.1,0,0,0-.191,1.128,1.661,1.661,0,0,0,1.986,1.881,2.353,2.353,0,0,0,.551-.126,2.409,2.409,0,0,0,.852-.524,2.1,2.1,0,0,0,.526-.739.839.839,0,0,0,.056-.357c-.113.117-.23.232-.356.34a2.08,2.08,0,0,1-.59.364c-.39.15-.633-.077-.645-.452a2.2,2.2,0,0,1,.152-.742c.694-2.043,1.4-4.082,2.105-6.122.056-.16.1-.322.165-.51Z" transform="translate(-263.631 -21.948)" fill="#262626"/>
    <path id="패스_167" data-name="패스 167" d="M373.156,33.948a1.03,1.03,0,0,0-.07-.242,9.833,9.833,0,0,1-.523.944,4.138,4.138,0,0,1-1.056,1.25c-.224.162-.566.395-.859.287-.383-.141-.269-.626-.2-.923.205-.855.473-1.694.743-2.532a8.553,8.553,0,0,0,.548-2.572,1.544,1.544,0,0,0-1.513-1.772,2.7,2.7,0,0,0-2.251.663c-.418.395-.772.781-1.146,1.182.123-1.107-.332-1.777-1.322-1.907-.21-.026-.366-.032-.422.214,0,0-1.634,4.751-1.682,4.9A7,7,0,0,0,363,35.4a1.631,1.631,0,0,0,1.762,1.793s1.531-4.47,1.538-4.47a5.649,5.649,0,0,1,1.12-2.182,2.672,2.672,0,0,1,.84-.71,1.064,1.064,0,0,1,.868-.028.561.561,0,0,1,.188.654c-.22.813-.342,1.133-.585,1.94-.221.737-.457,1.475-.6,2.231a2.031,2.031,0,0,0,1.341,2.489,2.957,2.957,0,0,0,2.53-.765,3.689,3.689,0,0,0,1.14-1.684,1.593,1.593,0,0,0,.045-.587,1.164,1.164,0,0,0-.023-.136" transform="translate(-281.196 -21.933)" fill="#262626"/>
    <path id="패스_168" data-name="패스 168" d="M186.437,7.556c.082-.222.153-.444.217-.668.043-.153.087-.306.121-.46.013-.057.026-.115.041-.174a1.426,1.426,0,0,1,.43-.841,2.5,2.5,0,0,1,1.429-.311l0,0H224.2a1.692,1.692,0,0,0-.227-.553,2.234,2.234,0,0,0-.763-.706,5.6,5.6,0,0,0-2.747-.543H191.236l-.826,0a6.614,6.614,0,0,0-3.257.862A6.327,6.327,0,0,0,184.7,6.73c-.042.085-.095.193-.152.315-.186.4-.431.95-.611,1.364a16.362,16.362,0,0,1-3.449,5.405,5.571,5.571,0,0,1-3,1.743,2.044,2.044,0,0,1-2.561-1.6A7.3,7.3,0,0,1,175,10.587c.263-.942.208-.9.379-1.377.19-.527.651-1.7.868-2.127a13.975,13.975,0,0,1,2.166-3.122.458.458,0,0,1,.6-.123c.911.345,1.449.56,2.378.857a4.924,4.924,0,0,0,2.773.215,3.451,3.451,0,0,0,1.858-1.158,1.724,1.724,0,0,0-.448-2.387,3.685,3.685,0,0,0-3.054-.729,9.571,9.571,0,0,0-3.67,1.632c-.187-.1-.363-.2-.542-.286A8.7,8.7,0,0,0,174.128.962c-1.9.085-3.544,1.167-3.544,3.013a1.956,1.956,0,0,0,.615,1.39,1.093,1.093,0,0,0,.472.164c.165-.02.105-.117.227-.658a2.321,2.321,0,0,1,1.095-1.519,3.78,3.78,0,0,1,1.8-.446,6.915,6.915,0,0,1,2.658.41,15.276,15.276,0,0,0-4.441,5.649,11.709,11.709,0,0,0-.441,1.235,8.119,8.119,0,0,0-.258,3.405,3.709,3.709,0,0,0,3.882,3.071,8.635,8.635,0,0,0,4.628-1.721,15.746,15.746,0,0,0,5.47-7.022c.014-.034.081-.2.146-.378M182.8,1.46a1.831,1.831,0,0,1,1.987,1.225,1.257,1.257,0,0,1-.347,1.59,1.416,1.416,0,0,1-.6.185,2.307,2.307,0,0,1-.874-.076,11.513,11.513,0,0,1-3.277-1.627,5.882,5.882,0,0,1,3.106-1.3" transform="translate(-132.143 -0.442)" fill="#262626"/>
  </g>
</svg>
